<svg width="64" height="64" viewBox="0 0 64 64" xmlns="http://www.w3.org/2000/svg">
  <defs>
    <radialGradient id="bg" cx="50%" cy="30%" r="70%">
      <stop offset="0%" stop-color="#3E2415" />
      <stop offset="100%" stop-color="#120706" />
    </radialGradient>
  </defs>

  <rect width="64" height="64" rx="12" fill="url(#bg)" />

  <!-- Saucer -->
  <ellipse cx="30" cy="48" rx="16" ry="3" fill="#2C1810" opacity="0.7" />

  <!-- Cup body -->
  <rect x="18" y="24" width="22" height="16" rx="3" fill="#BA7517" />

  <!-- Cup inner top rim -->
  <rect x="20" y="24" width="18" height="3" rx="1.5" fill="#FDF4E3" />

  <!-- Handle -->
  <path
    d="M40 27.5C43 27.5 46 29.5 46 33C46 36.5 43.2 38.5 40.8 38.5C39.2 38.5 38 37.7 38 36.3C38 35.1 38.9 34.3 40 34.3C41.1 34.3 42 35.1 42 36.1"
    fill="none"
    stroke="#BA7517"
    stroke-width="2"
    stroke-linecap="round"
  />

  <!-- Steam lines -->
  <path
    d="M24 18C24 16 23 15 23 13C23 11 24 10 25 9"
    fill="none"
    stroke="#FDF4E3"
    stroke-width="2"
    stroke-linecap="round"
  />
  <path
    d="M29 20C29 18 28 17 28 15C28 13 29 12 30 11"
    fill="none"
    stroke="#FDF4E3"
    stroke-width="2"
    stroke-linecap="round"
  />
  <path
    d="M34 19C34 17 33 16 33 14C33 12 34 11 35 10"
    fill="none"
    stroke="#FDF4E3"
    stroke-width="2"
    stroke-linecap="round"
  />

  <!-- Subtle border -->
  <rect x="4.5" y="4.5" width="55" height="55" rx="10" stroke="#BA7517" stroke-width="1" opacity="0.55" />
</svg>

